<?xml version="1.0" encoding="UTF-8"?>
<svg version="1.1" xmlns="http://www.w3.org/2000/svg" width="512" height="512">
<path d="M0 0 C1.2417952 -0.0071553 2.48359039 -0.01431061 3.76301575 -0.02168274 C5.13156103 -0.02452269 6.50010658 -0.02723445 7.86865234 -0.02983093 C9.31626039 -0.03610065 10.76386684 -0.0427479 12.21147156 -0.04974365 C16.95916637 -0.07073372 21.7068613 -0.08114432 26.45458984 -0.09111023 C28.09402482 -0.09516029 29.73345964 -0.09927728 31.37289429 -0.10346031 C39.08026665 -0.12250434 46.78762951 -0.13673456 54.49502087 -0.14507228 C63.36565311 -0.15482884 72.23603478 -0.18111015 81.10657883 -0.22157317 C87.97901484 -0.2518359 94.85137947 -0.26655091 101.72388077 -0.26985329 C105.82061146 -0.27219305 109.91707424 -0.28101162 114.01373291 -0.30631447 C117.87489845 -0.32977756 121.73562317 -0.33375623 125.59684181 -0.32355309 C127.00400074 -0.32306194 128.41118272 -0.3292562 129.81827354 -0.34310913 C143.92474547 -0.47407188 155.4827054 2.02355715 165.72802734 11.99482727 C172.41748541 19.09355598 176.00835115 27.13122094 175.89208984 36.89717102 C175.88306641 37.88201477 175.87404297 38.86685852 175.86474609 39.88154602 C175.84734375 41.0030304 175.84734375 41.0030304 175.82958984 42.14717102 C176.68164757 42.13384735 176.68164757 42.13384735 177.55091858 42.12025452 C183.53831776 42.03079394 189.52552295 41.97103407 195.51342773 41.92744446 C197.7390923 41.90750209 199.96470567 41.8803382 202.19018555 41.84541321 C225.27650621 41.49255418 243.49270227 44.46897978 260.82958984 61.14717102 C273.00851007 74.99068415 277.18502134 89.84143235 277.20458984 107.83467102 C277.22908203 109.03156555 277.25357422 110.22846008 277.27880859 111.46162415 C277.31495453 122.28733247 277.31495453 122.28733247 272.82958984 127.14717102 C269.52699061 130.0494552 266.94801536 131.06276155 262.51708984 131.39717102 C257.03273919 131.02535064 254.10358692 129.39096965 250.19287109 125.57295227 C247.10368665 121.75418466 247.13256604 118.21956546 247.14208984 113.45967102 C247.09447405 111.85145962 247.04240399 110.24337381 246.98583984 108.63545227 C246.96263672 107.86282043 246.93943359 107.0901886 246.91552734 106.29414368 C246.49708844 95.8403035 243.31618824 87.06981348 235.57958984 79.77217102 C228.00174947 74.06036548 220.09224181 72.54976822 210.79052734 72.53779602 C209.78365875 72.52125977 208.77679016 72.50472351 207.7394104 72.48768616 C204.56107263 72.43956369 201.38321201 72.4179148 198.20458984 72.39717102 C196.03399338 72.36898146 193.8634188 72.33904991 191.69287109 72.30732727 C186.40519631 72.23381503 181.11765372 72.18196408 175.82958984 72.14717102 C175.84236969 73.17478546 175.84236969 73.17478546 175.85540771 74.22315979 C175.8620343 75.12266357 175.86866089 76.02216736 175.87548828 76.94892883 C175.88826813 78.28591827 175.88826813 78.28591827 175.90130615 79.6499176 C175.66282745 87.95405031 170.98697151 95.63896917 165.57958984 101.64717102 C154.53296184 111.68956011 145.73316137 113.6026024 130.84570312 113.55122375 C129.34499608 113.55693514 127.84429337 113.56390236 126.34359741 113.57202148 C122.2897388 113.58988446 118.23609746 113.58879738 114.1822114 113.5830791 C110.7878226 113.5799769 107.39347491 113.58609121 103.99909198 113.59211785 C95.98568762 113.6061393 87.97238993 113.604622 79.95898438 113.59321594 C71.7149683 113.58174033 63.47127776 113.59580637 55.22730458 113.62261242 C48.12804834 113.64482491 41.02889386 113.65139424 33.92960536 113.64553601 C29.69889264 113.64217806 25.46838846 113.64450346 21.23770523 113.66178703 C17.25662304 113.67734269 13.27602005 113.67320616 9.29495621 113.65448189 C7.8418181 113.65081952 6.3886438 113.65383511 4.93553925 113.66436768 C-8.22902469 113.75243407 -18.46830781 111.41343674 -28.17041016 102.14717102 C-34.66482666 95.17437116 -38.11542412 87.31390098 -38.77587891 77.81904602 C-38.85346436 76.75266907 -38.9310498 75.68629211 -39.01098633 74.58760071 C-39.08990112 73.37958801 -39.08990112 73.37958801 -39.17041016 72.14717102 C-45.39650542 72.19156113 -51.6216094 72.26164291 -57.84716797 72.35469055 C-59.96134517 72.38277199 -62.07562485 72.40404978 -64.18994141 72.41816711 C-67.24385567 72.439775 -70.29655421 72.48651585 -73.35009766 72.53779602 C-74.74915848 72.53963898 -74.74915848 72.53963898 -76.17648315 72.54151917 C-85.66410554 72.74934782 -93.50665099 75.68229112 -100.41650391 82.22920227 C-108.84709198 91.4483977 -109.46852636 101.16061253 -109.43110657 113.19035339 C-109.43493211 114.49686989 -109.43875766 115.80338639 -109.44269913 117.14949429 C-109.4529563 120.76064742 -109.45080316 124.37170102 -109.44651854 127.98286223 C-109.44404716 131.88343732 -109.45307059 135.7839887 -109.46055603 139.68455505 C-109.47329361 147.32028977 -109.4750979 154.9559893 -109.47275577 162.59173284 C-109.4709714 168.79950785 -109.4727248 175.0072722 -109.47698021 181.21504593 C-109.4775754 182.09919038 -109.47817059 182.98333483 -109.47878381 183.89427153 C-109.47999559 185.69052195 -109.48120972 187.48677236 -109.48242619 189.28302278 C-109.4932981 206.12150562 -109.49114088 222.95996842 -109.48504134 239.79845239 C-109.47987249 255.19447942 -109.49112743 270.59044318 -109.51013956 285.98645769 C-109.52952295 301.80467882 -109.53777308 317.62287002 -109.53401631 333.4411031 C-109.53210503 342.317989 -109.53458473 351.19482104 -109.54873085 360.07169724 C-109.56065199 367.62869209 -109.56204131 375.18559994 -109.54994068 382.74259602 C-109.54405715 386.59600407 -109.54293794 390.44925304 -109.55494308 394.30265045 C-109.56782205 398.48523314 -109.55732501 402.66743816 -109.54463196 406.85002136 C-109.55200624 408.06053944 -109.55938053 409.27105753 -109.56697828 410.51825798 C-109.49840328 421.26774877 -107.74888199 430.17434432 -100.17041016 438.14717102 C-91.39893472 446.30797411 -82.27816391 447.5958174 -70.61439514 447.53485107 C-69.37236106 447.54023661 -68.13032698 447.54562215 -66.8506555 447.55117089 C-63.42404757 447.56295753 -59.99792912 447.56140044 -56.57134116 447.55400407 C-52.86777432 447.54925935 -49.16425882 447.56179371 -45.46070862 447.57202148 C-38.21345349 447.58918903 -30.96628513 447.59005379 -23.71901495 447.58480858 C-17.82685774 447.58076202 -11.93472611 447.58221621 -6.04257011 447.58755684 C-4.78316535 447.58867947 -4.78316535 447.58867947 -3.49831806 447.58982478 C-1.79250117 447.59135631 -0.08668429 447.59289466 1.61913259 447.59443975 C17.60399177 447.60815727 33.58880197 447.60273225 49.57366002 447.59125454 C64.18719723 447.58132181 78.80060782 447.59426484 93.41412549 447.61818873 C108.43233669 447.64258926 123.45048893 447.65218533 138.46871954 447.64553601 C146.89512252 447.64204605 155.32142813 447.64426112 163.74781609 447.66178703 C170.92053757 447.6765209 178.09309311 447.67712896 185.26581138 447.65971612 C188.92282292 447.65121364 192.57953816 447.64903785 196.23653412 447.66436768 C200.20670418 447.68080383 204.17641888 447.66604502 208.14659119 447.64837646 C209.29417198 447.65798147 210.44175277 447.66758648 211.62410873 447.67748255 C222.10350764 447.58165969 231.19790463 444.5578943 238.82958984 437.14717102 C247.00938705 426.74030435 246.96413686 415.1638949 246.93712425 402.47755241 C246.93355729 398.87842007 246.95943903 395.27943505 246.97998047 391.68037415 C247.00430252 387.12237807 247.0199709 382.56484229 247.00463867 378.00679016 C246.99294654 374.3013055 247.01043935 370.59694337 247.0470829 366.89163399 C247.0556607 365.4879453 247.05367551 364.08414811 247.04057884 362.68049431 C246.93426027 350.37509171 246.93426027 350.37509171 250.7253418 345.82319641 C254.3257233 342.36481862 257.29341356 341.28682341 262.26708984 340.83467102 C267.53536999 341.29680086 270.59790497 342.78233102 274.14208984 346.70967102 C276.94394664 350.7567975 276.96874789 353.09423144 277.0065918 358.03681946 C277.01316299 358.7461412 277.01973419 359.45546295 277.02650452 360.1862793 C277.04627007 362.54303599 277.05791598 364.8997284 277.06787109 367.25654602 C277.07194662 368.06467995 277.07602215 368.87281387 277.08022118 369.70543671 C277.10110973 373.99444321 277.11539142 378.28341758 277.12475586 382.57246399 C277.13574157 386.97007499 277.17004085 391.36716889 277.20992756 395.76459885 C277.23630374 399.17077969 277.24446679 402.57684221 277.24803734 405.98311615 C277.25286047 407.60157457 277.26434978 409.22002926 277.28307533 410.83838654 C277.48441982 429.41564582 273.24285554 445.05243904 260.10693359 458.86592102 C259.35541016 459.61873352 258.60388672 460.37154602 257.82958984 461.14717102 C256.87246094 462.12170227 256.87246094 462.12170227 255.89599609 463.11592102 C238.88290572 479.24475514 216.1201312 478.74966221 194.25238681 478.67006969 C190.52905356 478.66092768 186.80579217 478.67503373 183.08247375 478.68598938 C175.80940344 478.70368267 168.53649917 478.69997593 161.26342261 478.68833882 C155.34716607 478.67926831 149.43095573 478.67809605 143.51469421 478.68243408 C142.66944572 478.68304701 141.82419722 478.68365995 140.95333514 478.68429145 C139.23569237 478.68557048 137.51804961 478.68686734 135.80040687 478.68818182 C119.73185984 478.69956069 103.66340442 478.68651633 87.59487242 478.66498035 C73.83729099 478.64711182 60.07984462 478.65021669 46.32226562 478.6686554 C30.30728706 478.69010986 14.29238857 478.69846231 -1.72260237 478.68620634 C-3.43357307 478.68493228 -5.14454379 478.68367479 -6.85551453 478.68243408 C-7.69712518 478.68181698 -8.53873584 478.68119988 -9.40584984 478.68056408 C-15.30812799 478.67712487 -21.21035491 478.6829085 -27.11262512 478.69235229 C-34.31538975 478.70362469 -41.51798024 478.70042299 -48.72072518 478.67922932 C-52.38864851 478.6687888 -56.05628257 478.66447572 -59.72420311 478.67782593 C-83.81964601 478.75811872 -103.69549704 477.32884022 -122.17041016 460.14717102 C-136.53292784 445.21223415 -140.66351868 427.31395656 -140.55136108 407.21992493 C-140.55604106 405.90278818 -140.56072103 404.58565144 -140.56554282 403.22860146 C-140.57792132 399.62006366 -140.57194346 396.01176771 -140.56258416 392.40322971 C-140.55573928 388.49313382 -140.56630159 384.58307681 -140.57452393 380.67298889 C-140.58780596 373.03183711 -140.58500833 365.39077415 -140.576286 357.74961901 C-140.56948797 351.53489998 -140.56860186 345.3202057 -140.57185745 339.10548401 C-140.57231715 338.21818088 -140.57277685 337.33087775 -140.57325048 336.41668665 C-140.57420974 334.61368163 -140.57518238 332.81067661 -140.57616825 331.00767159 C-140.58470595 314.13370352 -140.57491352 297.25978448 -140.55876715 280.38582444 C-140.54536545 265.93320189 -140.547694 251.48065165 -140.56152344 237.0280304 C-140.57760796 220.2110265 -140.58388212 203.39406549 -140.57468665 186.57705498 C-140.57373108 184.78098934 -140.57278797 182.98492369 -140.57185745 181.18885803 C-140.57139463 180.30535002 -140.5709318 179.42184201 -140.57045495 178.51156104 C-140.56787366 172.31027351 -140.57221739 166.10901338 -140.57929611 159.9077301 C-140.58774331 152.34189244 -140.5853637 144.77614804 -140.56945388 137.21032095 C-140.56161423 133.35624915 -140.55840522 129.50233239 -140.56840134 125.64826202 C-140.57910733 121.45684766 -140.56625372 117.26581874 -140.55136108 113.07441711 C-140.55805325 111.87545618 -140.56474541 110.67649525 -140.57164037 109.44120216 C-140.49379076 98.07440908 -139.0822229 86.12832841 -133.67041016 75.95967102 C-133.3278418 75.30096008 -132.98527344 74.64224915 -132.63232422 73.96357727 C-124.42490915 58.95905582 -111.35654785 49.44627298 -95.29931641 44.05732727 C-90.8610501 42.766296 -86.82304957 42.02143846 -82.1965332 42.03364563 C-81.23591476 42.03372116 -80.27529633 42.03379669 -79.28556824 42.03387451 C-77.74936577 42.04161644 -77.74936577 42.04161644 -76.18212891 42.04951477 C-75.12379349 42.05092972 -74.06545807 42.05234467 -72.97505188 42.05380249 C-69.60264227 42.05938943 -66.23029962 42.07193958 -62.85791016 42.08467102 C-60.56819758 42.08968771 -58.27848395 42.09425032 -55.98876953 42.0983429 C-50.38262698 42.10935459 -44.77652336 42.12607976 -39.17041016 42.14717102 C-39.1170752 41.26964172 -39.06374023 40.39211243 -39.00878906 39.48799133 C-38.93063965 38.32880188 -38.85249023 37.16961243 -38.77197266 35.97529602 C-38.66103271 34.25681458 -38.66103271 34.25681458 -38.54785156 32.50361633 C-37.47076531 22.92549095 -32.43070607 14.4112693 -24.96337891 8.35810852 C-17.07792533 2.90411508 -9.65212892 0.03828907 0 0 Z M-8.17041016 34.14717102 C-10.23972774 40.35512376 -9.47841068 47.61608385 -9.52050781 54.13374329 C-9.53706316 56.01245006 -9.56434777 57.89109396 -9.60253906 59.76948547 C-9.65743809 62.48555495 -9.67920014 65.20015196 -9.69384766 67.91670227 C-9.72785172 69.16856071 -9.72785172 69.16856071 -9.76254272 70.44570923 C-9.74765488 74.57608735 -9.46601053 77.337419 -6.88769531 80.66157532 C-2.87773428 84.32962682 0.19687318 84.27190744 5.50924683 84.28761292 C7.24621826 84.29617813 7.24621826 84.29617813 9.01828003 84.30491638 C10.28487457 84.30603424 11.55146912 84.3071521 12.85644531 84.30830383 C14.20689021 84.31293431 15.5573338 84.31795928 16.90777588 84.323349 C20.57311375 84.33645143 24.23843333 84.34291354 27.90379095 84.34735966 C30.19472467 84.35029339 32.48565341 84.35439873 34.77658463 84.35886383 C41.94734323 84.37253203 49.11809043 84.38220245 56.28886116 84.38606572 C64.56128707 84.39054732 72.83354783 84.40810269 81.10592353 84.43706632 C87.50434992 84.45868997 93.90272986 84.46877034 100.3011924 84.47010684 C104.12100398 84.47115423 107.94066015 84.47704797 111.7604332 84.49492645 C115.35394404 84.51141945 118.94718285 84.51355684 122.54071808 84.50478745 C124.48377969 84.50365151 126.42683233 84.51735872 128.36984253 84.53153992 C136.557842 84.5943345 136.557842 84.5943345 143.82958984 81.14717102 C145.8794126 78.07243689 146.08454397 77.39988805 146.12011719 73.92280579 C146.13287689 73.07505081 146.1456366 72.22729584 146.15878296 71.35385132 C146.16100861 70.44131088 146.16323425 69.52877045 146.16552734 68.58857727 C146.17218414 67.64787888 146.17884094 66.70718048 146.18569946 65.73797607 C146.19582507 63.74833634 146.20051651 61.75866266 146.20019531 59.76899719 C146.20456845 56.72456451 146.24088874 53.68158151 146.27880859 50.6374054 C146.28467675 48.70446765 146.28864615 46.77152301 146.29052734 44.83857727 C146.31208389 43.47280296 146.31208389 43.47280296 146.33407593 42.07943726 C146.34558573 36.97425286 146.34558573 36.97425286 143.92578125 32.60395813 C140.43809638 30.18012682 138.4281113 30.01729589 134.19389343 30 C132.39577209 29.98926704 132.39577209 29.98926704 130.56132507 29.97831726 C129.22586085 29.97547689 127.89039636 29.97276517 126.55493164 29.97016907 C125.15389843 29.96390525 123.75286688 29.95725852 122.35183716 29.95025635 C118.53976376 29.9328394 114.72770292 29.92229275 110.91559958 29.91405082 C108.5345645 29.90890222 106.15353332 29.90282643 103.77250099 29.89653969 C96.32462785 29.87748582 88.87676464 29.863255 81.42887181 29.85492772 C72.82809871 29.845153 64.22758282 29.81882835 55.62690037 29.77842683 C48.98139942 29.74827968 42.33597225 29.7334602 35.69040424 29.73014671 C31.72019568 29.72779464 27.75026185 29.71881425 23.78012657 29.69368553 C20.04459957 29.67042397 16.30952853 29.66616354 12.57394791 29.67644691 C10.55073905 29.67717921 8.52755345 29.65807456 6.50444031 29.63838196 C5.29723328 29.64532578 4.09002625 29.65226959 2.84623718 29.65942383 C1.27525033 29.6558413 1.27525033 29.6558413 -0.32747364 29.65218639 C-3.92464531 30.27849116 -5.59295015 31.60442012 -8.17041016 34.14717102 Z " fill="#FFFFFF" transform="translate(172.17041015625,16.852828979492188)"/>
<path d="M0 0 C12.33054933 9.60525017 20.14338103 21.16860457 22.59765625 36.80859375 C23.90636211 51.50521008 21.39894022 66.23783971 11.78201962 77.90610981 C4.40335805 86.57610813 -3.51295159 94.6669964 -11.55297852 102.71411133 C-12.79272946 103.95850214 -14.0322869 105.20308577 -15.27166748 106.44784546 C-18.60997491 109.79915481 -21.95150765 113.14722887 -25.29408765 116.49427629 C-27.386337 118.58947247 -29.47800475 120.68524762 -31.56950188 122.78119469 C-38.12607351 129.35140067 -44.68461427 135.9196314 -51.24606758 142.48496228 C-58.79902982 150.04241428 -66.34538817 157.60638011 -73.88612992 165.17602521 C-79.7341586 171.04568513 -85.58795372 176.90955326 -91.44613975 182.76907557 C-94.93751285 186.2614944 -98.42643611 189.75627795 -101.9093647 193.25712013 C-105.18192015 196.54618417 -108.46159842 199.82797642 -111.74679565 203.10441208 C-112.94742748 204.3042754 -114.14552106 205.50668509 -115.34080315 206.71187782 C-130.17519004 221.66198391 -130.17519004 221.66198391 -139.90625 223.61328125 C-141.58267578 223.95673584 -141.58267578 223.95673584 -143.29296875 224.30712891 C-144.51628906 224.53577637 -145.73960937 224.76442383 -147 225 C-147.66531738 225.12791931 -148.33063477 225.25583862 -149.01611328 225.38763428 C-153.41025374 226.23180544 -157.81138592 227.02623618 -162.22021484 227.78979492 C-164.49905372 228.18733492 -166.77474934 228.60040399 -169.05078125 229.01367188 C-182.26262255 231.34981553 -194.80850685 233.30795061 -206.7734375 225.90234375 C-212.61644122 221.52750594 -216.04186789 215.22241456 -217.73828125 208.25 C-218.57019132 201.09805668 -217.60094222 194.33690812 -216.42578125 187.2890625 C-216.26007126 186.2808847 -216.09436127 185.27270691 -215.92362976 184.23397827 C-215.57155277 182.11046869 -215.21583969 179.98755911 -214.85668945 177.86523438 C-214.3157571 174.64439354 -213.79912285 171.42024131 -213.28320312 168.1953125 C-212.93638644 166.12214592 -212.58812581 164.04922028 -212.23828125 161.9765625 C-212.08909744 161.02520416 -211.93991364 160.07384583 -211.78620911 159.09365845 C-209.32666069 145.0187448 -201.74035934 137.01425816 -191.93896484 127.30786133 C-190.59544288 125.95919405 -189.25299289 124.60945819 -187.91152954 123.25874329 C-184.28221485 119.61098224 -180.63744631 115.97904351 -176.98906279 112.35036683 C-173.16137887 108.53913148 -169.34637225 104.71524103 -165.52944946 100.89323425 C-159.11743916 94.47670913 -152.69533248 88.07042648 -146.26708984 81.67016602 C-138.8526565 74.287761 -131.45436239 66.88948045 -124.0645622 59.4824236 C-116.93565982 52.33761282 -109.79544823 45.20420721 -102.65007401 38.07587242 C-99.61877099 35.05141265 -96.59141698 32.02308144 -93.56724167 28.99149513 C-89.99930345 25.41585053 -86.42150481 21.85036344 -82.83611679 18.29221916 C-81.52788495 16.99082747 -80.22296463 15.68609628 -78.92177582 14.37766266 C-57.59338785 -7.05568862 -27.65333995 -19.39196647 0 0 Z M-51 30 C-52.12821343 31.11658589 -53.25718371 32.23240732 -54.38671875 33.34765625 C-57.61212231 36.5446787 -60.81071855 39.76696317 -64 43 C-62.67005617 45.95265112 -61.22220684 48.02350216 -58.92724609 50.29980469 C-58.30675385 50.92014587 -57.6862616 51.54048706 -57.04696655 52.17962646 C-56.04531967 53.16578949 -56.04531967 53.16578949 -55.0234375 54.171875 C-54.33819 54.8542926 -53.6529425 55.53671021 -52.94692993 56.23980713 C-50.76094155 58.41461598 -48.56809571 60.58236072 -46.375 62.75 C-44.89016745 64.2247999 -43.40578694 65.70005506 -41.921875 67.17578125 C-38.2864709 70.78915448 -34.64490176 74.39620853 -31 78 C-29.89865336 77.06183205 -28.79815306 76.12267051 -27.69799805 75.18310547 C-27.08506393 74.66021942 -26.47212982 74.13733337 -25.84062195 73.59860229 C-12.35533097 61.89243962 -12.35533097 61.89243962 -6.6875 45.4375 C-6.81675152 38.40621748 -9.52489975 32.17358676 -14.3125 27.0625 C-26.49488778 16.04651105 -40.40746259 19.29919134 -51 30 Z M-90.76200867 69.29943848 C-91.54557236 70.03256256 -92.32913605 70.76568665 -93.13644409 71.52102661 C-93.99722565 72.33715424 -94.8580072 73.15328186 -95.74487305 73.99414062 C-97.1036985 75.27301651 -97.1036985 75.27301651 -98.48997498 76.57772827 C-106.92277092 84.54114472 -115.26213509 92.60205287 -123.56981182 100.69574738 C-129.14157273 106.12072513 -134.73958638 111.51068167 -140.4206543 116.82128906 C-175.50768242 148.58239384 -175.50768242 148.58239384 -188.22973633 192.79492188 C-188.37497895 197.54014064 -188.37497895 197.54014064 -187 202 C-181.67738739 201.07103008 -176.35737808 200.12869666 -171.03930664 199.17407227 C-169.23103628 198.85140391 -167.42211641 198.53235314 -165.61254883 198.21704102 C-163.00681938 197.76234517 -160.40372738 197.29455404 -157.80078125 196.82421875 C-156.99538406 196.68658615 -156.18998688 196.54895355 -155.36018372 196.40715027 C-154.5997728 196.2672316 -153.83936188 196.12731293 -153.0559082 195.9831543 C-152.39194534 195.86546188 -151.72798248 195.74776947 -151.04389954 195.62651062 C-146.52408804 194.24106586 -143.19455957 191.44406589 -139.90605164 188.14656067 C-139.12507614 187.3683345 -138.34410065 186.59010834 -137.53945923 185.78829956 C-136.69716766 184.93881744 -135.8548761 184.08933533 -134.98706055 183.21411133 C-134.08900192 182.31634476 -133.1909433 181.41857819 -132.26567078 180.49360657 C-129.81113405 178.03964232 -127.36280136 175.57957232 -124.91555381 173.11834168 C-122.35401541 170.54427842 -119.78679057 167.9758992 -117.22016907 165.40690613 C-112.36432553 160.54485299 -107.51360167 155.67772533 -102.66470605 150.80874413 C-97.14265659 145.26431951 -91.61490913 139.72559071 -86.08668077 134.18732798 C-74.71811123 122.79786821 -63.35670219 111.40129329 -52 100 C-52.93362995 98.90050063 -53.86876386 97.80227827 -54.80450439 96.70457458 C-55.32509052 96.09286124 -55.84567665 95.4811479 -56.38203812 94.85089779 C-58.94424564 91.91981252 -61.67271939 89.16484059 -64.421875 86.41015625 C-65.00793518 85.82076767 -65.59399536 85.23137909 -66.19781494 84.62413025 C-67.42337924 83.39354716 -68.65026072 82.16427456 -69.87841797 80.9362793 C-71.76428826 79.04819496 -73.64198401 77.15221628 -75.51953125 75.25585938 C-76.71565718 74.05680401 -77.91225462 72.85821877 -79.109375 71.66015625 C-79.67082214 71.09152359 -80.23226929 70.52289093 -80.81072998 69.93702698 C-85.23776919 65.53612833 -86.22979471 65.03970372 -90.76200867 69.29943848 Z " fill="#FFFFFF" transform="translate(457,191)"/>
<path d="M0 0 C0.73437259 -0.00226556 1.46874518 -0.00453111 2.22537148 -0.00686532 C4.68103563 -0.01318495 7.1366443 -0.01237727 9.59231567 -0.0115509 C11.35507275 -0.01454365 13.11782916 -0.01794645 14.88058472 -0.02172852 C19.66573351 -0.03056064 24.45086441 -0.03290629 29.23602057 -0.0335443 C32.22631993 -0.03425522 35.21661476 -0.03639033 38.20691299 -0.03904152 C48.64104755 -0.04829212 59.07516934 -0.05237674 69.50930786 -0.05158997 C79.23238938 -0.05098915 88.95541541 -0.06154247 98.67848289 -0.07733363 C107.02936974 -0.0904125 115.38023847 -0.09577372 123.73113549 -0.09513456 C128.71737183 -0.09487968 133.70355887 -0.09772504 138.689785 -0.10831261 C143.37981717 -0.11799947 148.06975293 -0.11806871 152.75978851 -0.11079597 C154.4790651 -0.10975089 156.19834771 -0.11210852 157.91761398 -0.11815643 C160.26875662 -0.12589011 162.61956748 -0.12122258 164.97070312 -0.11352539 C166.942356 -0.11434254 166.942356 -0.11434254 168.95384026 -0.1151762 C173.56593686 0.1985867 177.93585119 0.74777479 181.57327271 3.75480652 C182.27323364 4.65392761 182.27323364 4.65392761 182.98733521 5.57121277 C183.71049927 6.46646667 183.71049927 6.46646667 184.44827271 7.37980652 C186.97289264 11.18368018 186.91311641 14.69719005 186.61233521 19.13371277 C184.62389403 24.4711075 181.70565873 27.58705101 176.61233521 30.13371277 C174.15741458 30.23780765 171.73046184 30.28151116 169.2749939 30.28088379 C168.12721895 30.28639882 168.12721895 30.28639882 166.95625663 30.29202527 C164.37839332 30.3030858 161.80057028 30.30690995 159.22268677 30.31071472 C157.37993236 30.31697759 155.53717923 30.32362423 153.69442749 30.33062744 C148.67777852 30.34805376 143.6611391 30.35859369 138.64446735 30.36683297 C135.5116414 30.37197976 132.37881842 30.37805564 129.24599457 30.3843441 C119.44826636 30.40340088 109.6505457 30.41763088 99.85280252 30.42595607 C88.53533285 30.43573075 77.21805866 30.4620543 65.90065789 30.50245696 C57.15834391 30.53259777 48.41608602 30.54742302 39.67372108 30.55073708 C34.44986544 30.55308993 29.22621851 30.56208083 24.00241852 30.58719826 C19.08746569 30.6104483 14.17285943 30.61472455 9.25786591 30.60443687 C7.45430856 30.60394065 5.65073434 30.61028647 3.847229 30.62399292 C1.38360669 30.64166787 -1.07876598 30.63462805 -3.54238892 30.62145996 C-4.25504591 30.63242921 -4.9677029 30.64339845 -5.70195556 30.6547001 C-10.70762434 30.59016634 -13.51159877 29.2346555 -17.38766479 26.13371277 C-20.28994897 22.83111353 -21.30325532 20.25213829 -21.63766479 15.82121277 C-21.26951314 10.39097579 -19.5248642 6.93012409 -15.51266479 3.32121277 C-10.50128571 -0.18675259 -6.01483088 0.00767303 0 0 Z " fill="#FFFFFF" transform="translate(131.38766479492188,196.8662872314453)"/>
<path d="M0 0 C0.99585617 -0.00700928 1.99171234 -0.01401855 3.01774597 -0.02124023 C6.30052806 -0.03880561 9.58244393 -0.02720216 12.86523438 -0.01367188 C15.15157232 -0.01636719 17.43790914 -0.02024995 19.72424316 -0.02526855 C24.5123996 -0.03116165 29.30025724 -0.02260638 34.08837891 -0.00390625 C40.22198521 0.01888278 46.35489136 0.00575875 52.48847198 -0.01819611 C57.20856998 -0.03265893 61.92850233 -0.02804578 66.64860535 -0.01768494 C68.91000959 -0.01501901 71.17142894 -0.01828266 73.43281555 -0.02760315 C76.59493779 -0.0377763 79.75593051 -0.02225583 82.91796875 0 C83.85009689 -0.00809692 84.78222504 -0.01619385 85.74259949 -0.02453613 C91.31644054 0.04804119 94.5395667 0.7900577 98.95898438 4.51757812 C101.86126855 7.82017736 102.8745749 10.39915261 103.20898438 14.83007812 C102.86420986 19.91550216 101.26801533 23.00401109 97.95898438 26.83007812 C94.97310865 29.34941077 92.44991093 29.64323337 88.68362427 29.65802002 C87.81165405 29.66373016 86.93968384 29.66944031 86.04129028 29.67532349 C85.08745453 29.67644135 84.13361877 29.6775592 83.15087891 29.67871094 C82.14410095 29.68367584 81.137323 29.68864075 80.10003662 29.6937561 C76.7639498 29.70838125 73.42791051 29.71518001 70.09179688 29.72070312 C67.776357 29.72645387 65.46091714 29.73221162 63.14547729 29.73797607 C58.28822609 29.74848678 53.43099145 29.75432913 48.57373047 29.7578125 C42.34704246 29.76330018 36.1205728 29.78733395 29.89395332 29.81578445 C25.11045693 29.83439841 20.32701329 29.83961576 15.54348373 29.84114838 C13.24774862 29.84417776 10.95201449 29.85221587 8.65631485 29.86533356 C5.44599991 29.88236925 2.23622058 29.88051977 -0.97412109 29.87402344 C-1.92390839 29.88323822 -2.87369568 29.892453 -3.8522644 29.90194702 C-8.72129135 29.87104906 -12.13380055 29.7611364 -16.04101562 26.51757812 C-19.44933234 21.91174473 -20.71700175 18.40440617 -20.42382812 12.65820312 C-19.5900716 7.99597274 -17.02485225 5.35105939 -13.5201416 2.38195801 C-8.87520451 -0.107152 -5.18871763 -0.04507176 0 0 Z " fill="#FFFFFF" transform="translate(130.041015625,282.482421875)"/>
<path d="M0 0 C0.69959839 -0.0065712 1.39919678 -0.0131424 2.11999512 -0.01991272 C4.43522251 -0.03962096 6.75038501 -0.05130455 9.06567383 -0.0612793 C9.85831446 -0.06535482 10.65095509 -0.06943035 11.46761513 -0.07362938 C15.66541914 -0.0944825 19.86319057 -0.10878583 24.06103516 -0.11816406 C28.38410215 -0.12920936 32.70665171 -0.16358924 37.02953625 -0.20333576 C40.36427221 -0.22956171 43.69888619 -0.23786131 47.0337162 -0.24144554 C48.62643224 -0.24629839 50.21914331 -0.2578751 51.81175804 -0.27648354 C67.29598005 -0.4461164 67.29598005 -0.4461164 74.08520508 4.17700195 C76.82979597 7.13710345 77.97285128 10.47440985 78.23754883 14.4855957 C77.89923502 19.62970047 76.55045889 23.2434706 73.08520508 27.17700195 C68.49868979 29.97983184 65.04428444 30.55525663 59.70629883 30.56518555 C58.63679489 30.57307098 58.63679489 30.57307098 57.54568481 30.58111572 C55.20446431 30.59424759 52.8639317 30.58560234 50.52270508 30.57543945 C48.88655467 30.57746216 47.25040515 30.58037523 45.61425781 30.58413696 C42.19139999 30.58855107 38.76877763 30.58215884 35.34594727 30.56811523 C30.96788285 30.55102375 26.59037024 30.56086986 22.21232605 30.57883263 C18.8356107 30.58969525 15.45902526 30.58621279 12.08230591 30.57844925 C10.46843398 30.57645409 8.8545501 30.57888241 7.24069214 30.58588791 C4.981516 30.59354348 2.7232221 30.58184194 0.46411133 30.56518555 C-0.81906982 30.56279877 -2.10225098 30.56041199 -3.42431641 30.55795288 C-8.51099508 30.00279262 -11.76202821 28.42323623 -15.22729492 24.67700195 C-18.13512396 20.36910708 -18.4441044 16.2487491 -17.91479492 11.17700195 C-16.19750905 6.47706166 -14.04872826 3.96740696 -9.91479492 1.17700195 C-6.43212198 0.01611097 -3.67560009 0.02857983 0 0 Z " fill="#FFFFFF" transform="translate(127.914794921875,367.822998046875)"/>
</svg>
